<?xml version="1.0" standalone="no"?>
<!DOCTYPE svg PUBLIC "-//W3C//DTD SVG 20010904//EN"
 "http://www.w3.org/TR/2001/REC-SVG-20010904/DTD/svg10.dtd">
<svg version="1.0" xmlns="http://www.w3.org/2000/svg"
 width="542.000000pt" height="539.000000pt" viewBox="0 0 542.000000 539.000000"
 preserveAspectRatio="xMidYMid meet">

<g transform="translate(0.000000,539.000000) scale(0.100000,-0.100000)"
fill="#000000" stroke="none">
<path d="M2481 5319 c-900 -80 -1703 -623 -2109 -1426 -175 -346 -260 -662
-281 -1046 -60 -1049 506 -2025 1447 -2495 805 -402 1765 -366 2526 97 583
353 1003 908 1182 1560 226 823 31 1723 -514 2371 -95 113 -277 292 -382 375
-202 161 -491 324 -724 410 -358 132 -770 187 -1145 154z m549 -315 c421 -61
814 -232 1145 -499 104 -83 270 -249 351 -350 263 -330 434 -736 496 -1180 16
-117 16 -434 -1 -555 -49 -359 -183 -720 -373 -1005 -70 -104 -173 -235 -186
-235 -4 0 -193 186 -421 414 l-413 413 43 24 c24 14 261 139 526 279 l482 254
-22 24 c-48 52 -24 62 -550 -216 -619 -327 -553 -294 -566 -278 -8 10 112 77
564 316 615 326 586 306 523 351 l-28 20 -468 -247 c-257 -135 -514 -271 -570
-301 -88 -47 -106 -53 -117 -42 -11 12 87 67 611 343 343 181 624 330 624 332
0 1 -18 16 -40 34 l-39 31 -268 -142 c-147 -78 -308 -163 -358 -189 -49 -26
-206 -109 -349 -184 -230 -122 -286 -146 -286 -119 0 4 298 165 663 357 364
192 666 352 670 356 5 4 -10 21 -31 39 l-40 31 -599 -316 c-329 -174 -630
-333 -670 -354 -58 -31 -74 -36 -83 -25 -12 15 -10 16 340 200 102 54 221 117
265 140 86 46 559 296 715 378 52 27 98 53 103 56 4 4 -10 22 -32 39 l-39 31
-718 -379 c-469 -248 -722 -376 -728 -370 -6 6 -6 13 -1 18 6 5 350 188 765
407 415 219 756 399 758 400 5 4 -1117 985 -1127 985 -6 0 -347 -158 -758
-350 l-748 -350 -427 427 c-236 236 -428 431 -428 435 0 13 149 128 260 200
313 205 698 336 1085 368 128 11 360 3 495 -16z m-1290 -1554 c-1 -3 -223
-108 -495 -235 -272 -126 -495 -233 -495 -236 0 -5 798 -778 1087 -1053 l83
-78 456 241 c251 132 464 242 472 243 8 2 17 -2 19 -8 2 -5 -119 -75 -269
-154 -358 -188 -420 -221 -563 -297 -66 -35 -124 -61 -130 -58 -5 2 -253 240
-550 529 l-540 524 -30 -12 c-16 -7 -30 -17 -30 -22 0 -6 262 -263 581 -571
l582 -561 511 270 c347 183 517 268 529 263 16 -6 15 -8 -3 -21 -15 -11 -875
-468 -1012 -538 l-33 -16 -307 297 c-170 163 -417 402 -550 531 l-242 233 -31
-16 c-17 -9 -30 -20 -28 -24 8 -18 1160 -1121 1171 -1121 6 0 262 133 567 294
413 219 558 292 568 284 7 -6 10 -13 8 -16 -3 -2 19 -25 49 -50 30 -25 53 -47
52 -48 -1 -1 -204 -108 -452 -239 -637 -336 -632 -333 -721 -381 l-81 -44
-479 461 c-263 254 -511 493 -550 531 l-71 70 -32 -16 c-17 -9 -31 -18 -31
-21 0 -7 1154 -1117 1166 -1122 6 -2 305 152 665 342 360 190 660 343 666 340
7 -2 13 -8 13 -13 0 -4 -246 -138 -547 -297 -572 -301 -575 -303 -713 -377
l-85 -46 -80 76 c-66 62 -590 566 -941 904 -79 77 -80 78 -112 66 -18 -7 -32
-15 -32 -19 0 -6 1054 -1027 1152 -1116 16 -14 26 -11 120 37 57 30 117 61
133 70 118 65 1174 620 1181 620 5 0 211 -202 457 -448 l448 -448 -33 -30
c-146 -137 -455 -318 -701 -409 -401 -148 -901 -178 -1317 -79 -691 163 -1249
608 -1564 1244 -159 322 -236 653 -236 1020 0 362 72 684 225 1005 79 164 230
396 324 498 l25 28 388 -388 c213 -213 388 -390 388 -393z m1614 580 c118 -58
263 -73 338 -34 16 8 34 12 41 7 7 -4 121 -103 255 -221 l243 -213 -27 -32
c-50 -59 -76 -134 -83 -235 l-6 -94 -325 -168 c-178 -93 -325 -168 -327 -167
-1 2 5 23 14 47 39 111 9 265 -78 394 -152 228 -436 387 -723 404 l-109 7 354
167 c195 91 358 167 363 167 5 1 36 -13 70 -29z m-1167 -514 l-22 -44 -23 21
-23 21 43 23 c24 12 44 22 45 23 1 0 -8 -20 -20 -44z m81 -589 l444 -444 -44
-25 c-23 -14 -88 -48 -143 -76 -55 -28 -123 -63 -150 -78 l-50 -27 -45 32
c-128 89 -395 92 -492 5 -16 -15 -37 3 -297 252 l-281 269 8 35 c11 53 6 131
-12 173 l-15 38 52 24 c29 13 167 78 307 144 140 66 260 120 265 121 6 0 210
-200 453 -443z"/>
</g>
</svg>
