<?xml version="1.0" standalone="no"?>
<!DOCTYPE svg PUBLIC "-//W3C//DTD SVG 20010904//EN"
 "http://www.w3.org/TR/2001/REC-SVG-20010904/DTD/svg10.dtd">
<svg version="1.0" xmlns="http://www.w3.org/2000/svg"
 width="820.000000pt" height="753.000000pt" viewBox="0 0 820.000000 753.000000"
 preserveAspectRatio="xMidYMid meet">

<g transform="translate(0.000000,753.000000) scale(0.100000,-0.100000)"
fill="#000000" stroke="none">
<path d="M3113 7505 c-376 -68 -690 -343 -812 -712 -52 -157 -63 -372 -27
-538 91 -424 427 -745 855 -819 576 -99 1127 303 1212 883 14 102 7 298 -16
391 -45 186 -128 339 -262 480 -210 221 -469 332 -772 329 -58 0 -138 -7 -178
-14z"/>
<path d="M6422 6529 c-271 -35 -524 -194 -679 -426 -90 -135 -142 -284 -157
-453 l-6 -65 70 -49 c89 -63 236 -214 293 -303 96 -148 153 -290 183 -454 l16
-88 57 -22 c134 -50 200 -62 351 -62 124 0 159 4 240 25 363 98 630 380 711
753 22 99 17 304 -10 410 -25 98 -90 246 -142 321 -49 71 -166 191 -234 239
-201 142 -452 206 -693 174z"/>
<path d="M1461 5545 c-499 -109 -829 -559 -772 -1054 46 -400 327 -726 716
-833 67 -18 107 -22 245 -22 195 0 267 15 420 92 l95 47 21 90 c58 242 167
431 351 605 l86 81 -7 97 c-30 451 -347 813 -784 898 -92 18 -286 17 -371 -1z"/>
<path d="M4761 5545 c-296 -65 -537 -248 -670 -512 -58 -114 -91 -229 -105
-369 l-5 -51 61 -43 c251 -177 441 -476 490 -774 l13 -80 76 -27 c113 -41 215
-59 334 -59 442 0 818 293 937 730 33 121 33 346 0 470 -28 106 -104 265 -165
346 -142 188 -353 319 -590 368 -94 20 -287 20 -376 1z"/>
<path d="M2678 5336 c-42 -6 -80 -14 -83 -18 -3 -3 13 -37 36 -74 86 -141 150
-338 164 -506 l7 -76 74 34 c109 49 234 83 361 96 180 19 321 -1 554 -78 14
-5 17 6 23 66 15 150 75 325 155 455 33 54 45 82 38 87 -7 3 -52 11 -102 17
-124 15 -1124 13 -1227 -3z"/>
<path d="M3166 4544 c-250 -49 -475 -197 -616 -404 -119 -175 -180 -394 -166
-600 27 -414 299 -753 703 -877 81 -25 101 -27 263 -27 162 0 182 2 264 28
349 107 598 371 683 727 23 97 23 305 0 406 -87 380 -368 660 -745 743 -103
23 -282 25 -386 4z"/>
<path d="M6146 4529 c-2 -8 -7 -48 -10 -89 -16 -221 -128 -474 -296 -669 l-58
-67 67 -23 c36 -13 118 -50 181 -83 402 -206 684 -583 775 -1038 12 -59 19
-161 24 -329 l6 -245 70 3 c149 5 391 34 560 67 262 51 507 126 660 200 l75
37 0 541 c0 589 -6 668 -56 826 -61 196 -160 359 -308 506 -184 184 -378 289
-634 345 -89 19 -137 21 -574 26 -399 5 -478 3 -482 -8z"/>
<path d="M1045 3545 c-187 -34 -364 -105 -512 -207 -272 -185 -469 -502 -517
-831 -13 -85 -16 -209 -16 -655 l0 -551 98 -30 c259 -80 502 -138 772 -185
159 -28 478 -66 551 -66 l47 0 4 248 c4 203 9 264 26 345 66 301 189 525 406
743 170 169 329 271 554 354 l63 23 -54 56 c-106 112 -200 270 -251 423 -23
68 -47 185 -61 301 l-6 47 -517 -1 c-373 -1 -537 -4 -587 -14z"/>
<path d="M4545 3513 c-25 -207 -55 -313 -126 -454 -52 -104 -100 -176 -173
-257 -31 -34 -56 -66 -56 -71 0 -4 26 -15 58 -25 338 -107 684 -420 846 -768
101 -216 136 -399 136 -718 l0 -213 103 7 c451 30 860 120 1170 256 l97 43 0
561 c0 615 -3 663 -59 834 -94 287 -308 547 -574 695 -86 49 -199 93 -316 125
l-96 26 -502 4 -502 3 -6 -48z"/>
<path d="M2734 2544 c-167 -28 -344 -99 -494 -199 -99 -66 -253 -220 -320
-319 -110 -164 -188 -367 -210 -546 -6 -49 -10 -317 -10 -632 l0 -547 83 -25
c478 -145 910 -227 1347 -257 216 -14 645 -6 825 16 382 46 724 132 953 240
l93 44 -3 593 -4 593 -26 101 c-65 248 -165 424 -337 594 -189 188 -414 303
-673 345 -127 20 -1101 20 -1224 -1z"/>
</g>
</svg>
