<?xml version="1.0" standalone="no"?>
<!DOCTYPE svg PUBLIC "-//W3C//DTD SVG 20010904//EN"
 "http://www.w3.org/TR/2001/REC-SVG-20010904/DTD/svg10.dtd">
<svg version="1.0" xmlns="http://www.w3.org/2000/svg"
 width="512.000000pt" height="512.000000pt" viewBox="0 0 512.000000 512.000000"
 preserveAspectRatio="xMidYMid meet">

<g transform="translate(0.000000,512.000000) scale(0.100000,-0.100000)"
fill="#000000" stroke="none">
<path d="M4664 4896 c-68 -30 -64 17 -64 -793 0 -546 3 -739 12 -758 22 -48
51 -55 242 -55 96 0 186 4 200 10 14 5 35 24 46 42 19 32 20 51 20 753 0 665
-1 723 -18 755 -11 24 -28 39 -52 47 -51 17 -346 16 -386 -1z"/>
<path d="M4385 4715 l-25 -24 0 -589 c0 -581 0 -590 21 -616 18 -23 27 -26 85
-26 l64 0 0 640 0 640 -60 0 c-51 0 -65 -4 -85 -25z"/>
<path d="M2952 4555 c-56 -10 -146 -47 -389 -160 -341 -157 -417 -203 -489
-293 -77 -97 -134 -243 -134 -340 l0 -41 118 -37 c188 -58 686 -214 703 -219
13 -4 34 21 84 102 37 59 90 132 119 161 64 67 209 182 229 182 12 0 27 -19
27 -35 0 -2 -33 -30 -72 -61 -40 -32 -95 -78 -121 -103 -48 -46 -185 -250
-214 -318 -18 -46 -19 -130 0 -175 35 -84 150 -149 235 -133 88 15 136 50 228
166 79 99 109 126 294 269 l205 160 263 0 262 0 0 445 0 445 -637 -1 c-482 -1
-656 -4 -711 -14z"/>
<path d="M1495 3761 c-11 -5 -28 -17 -38 -28 -23 -26 -267 -806 -267 -855 0
-50 31 -81 96 -101 27 -8 463 -144 969 -303 506 -158 935 -287 954 -287 66 2
72 16 212 463 92 291 128 421 124 440 -9 43 -46 69 -130 95 l-78 24 -76 -77
c-88 -90 -141 -114 -246 -114 -77 1 -144 27 -198 80 -71 68 -107 173 -89 257
5 25 8 45 5 45 -2 0 -270 83 -595 185 -325 102 -598 185 -607 184 -9 0 -25 -4
-36 -8z m248 -405 c94 -40 132 -148 86 -244 -53 -109 -196 -132 -283 -44 -56
56 -70 127 -37 197 41 90 143 130 234 91z m699 -7 c157 -34 266 -148 300 -313
22 -111 -21 -241 -109 -329 -92 -93 -214 -130 -340 -103 -90 18 -148 52 -212
122 -161 176 -115 457 95 580 82 48 172 63 266 43z m719 -443 c42 -28 79 -96
79 -144 0 -38 -23 -98 -48 -125 -57 -63 -169 -74 -236 -23 -119 90 -89 271 52
317 42 13 112 1 153 -25z"/>
<path d="M91 2003 c-41 -8 -70 -34 -81 -72 -8 -24 -10 -272 -8 -759 l3 -724
33 -29 32 -29 186 0 c202 0 230 6 252 55 9 19 12 212 12 759 0 724 0 734 -20
759 -12 15 -38 31 -58 37 -36 10 -302 12 -351 3z"/>
<path d="M590 1195 l0 -647 62 4 c51 4 65 9 85 32 l23 27 0 588 c0 686 9 632
-104 639 l-66 4 0 -647z"/>
<path d="M830 1176 l0 -474 83 -26 c46 -14 146 -55 223 -92 490 -233 759 -346
870 -364 90 -15 99 -12 729 250 640 267 659 275 699 320 43 47 65 132 49 185
l-11 35 91 42 c215 99 249 120 282 172 25 41 30 60 30 111 0 85 -38 147 -115
188 -96 50 -81 55 -759 -261 -493 -231 -611 -282 -646 -282 -38 0 -576 68
-582 74 -1 1 173 23 387 48 436 52 447 55 505 136 28 41 30 50 30 130 0 77 -3
92 -28 134 -29 49 -86 91 -142 102 -17 4 -201 -14 -409 -38 l-378 -45 -357 50
c-196 27 -390 54 -431 60 -41 5 -85 12 -97 14 l-23 5 0 -474z"/>
</g>
</svg>
