<?xml version="1.0" standalone="no"?>
<!DOCTYPE svg PUBLIC "-//W3C//DTD SVG 20010904//EN"
 "http://www.w3.org/TR/2001/REC-SVG-20010904/DTD/svg10.dtd">
<svg version="1.0" xmlns="http://www.w3.org/2000/svg"
 width="1024.000000pt" height="1024.000000pt" viewBox="0 0 1024.000000 1024.000000"
 preserveAspectRatio="xMidYMid meet">

<g transform="translate(0.000000,1024.000000) scale(0.100000,-0.100000)"
fill="#000000" stroke="none">
<path d="M5050 9912 c-19 -9 -45 -33 -58 -52 -23 -34 -23 -35 -20 -330 3 -334
2 -330 85 -371 49 -24 99 -20 151 11 67 41 67 43 67 365 0 284 0 291 -23 326
-40 65 -129 88 -202 51z"/>
<path d="M3314 9599 c-77 -22 -127 -113 -103 -187 7 -20 82 -163 167 -317 330
-598 315 -575 384 -593 70 -19 151 17 182 82 30 64 48 24 -254 581 -63 116
-137 253 -165 305 -44 83 -56 98 -95 118 -47 24 -67 25 -116 11z"/>
<path d="M6823 9591 c-25 -12 -51 -35 -66 -58 -22 -34 -281 -510 -416 -764
-56 -106 -64 -154 -32 -202 55 -84 161 -95 237 -24 22 20 117 182 265 447 230
415 230 415 226 468 -8 115 -113 180 -214 133z"/>
<path d="M4990 8764 c-347 -67 -596 -296 -686 -631 -36 -132 -38 -317 -5 -438
45 -168 125 -300 256 -423 157 -147 331 -214 560 -215 144 -1 241 19 360 72
330 150 534 510 494 871 -38 342 -261 624 -579 731 -86 29 -108 32 -235 35
-77 1 -151 0 -165 -2z"/>
<path d="M3205 8140 c-52 -21 -86 -94 -71 -154 3 -14 42 -70 85 -125 91 -113
122 -132 189 -111 80 26 125 100 99 162 -22 51 -145 206 -177 223 -31 16 -93
19 -125 5z"/>
<path d="M6910 8138 c-14 -8 -60 -61 -103 -118 -77 -102 -79 -106 -74 -153 8
-84 84 -139 164 -118 43 12 72 40 156 152 50 67 57 82 57 123 0 39 -6 52 -33
83 -29 31 -41 37 -88 40 -33 2 -64 -1 -79 -9z"/>
<path d="M1474 8016 c-57 -25 -102 -108 -90 -168 10 -48 39 -81 138 -149 51
-36 225 -158 385 -272 161 -114 307 -216 325 -227 39 -23 107 -26 146 -6 55
29 76 62 80 129 4 56 1 66 -22 94 -14 17 -95 79 -178 139 -84 59 -261 184
-392 278 -132 94 -251 176 -265 183 -34 16 -89 15 -127 -1z"/>
<path d="M8635 8015 c-16 -9 -151 -103 -300 -211 -148 -108 -320 -232 -381
-275 -157 -113 -169 -127 -169 -198 1 -94 56 -151 146 -151 58 0 85 16 424
261 149 107 316 227 372 267 108 77 133 108 133 167 0 112 -125 190 -225 140z"/>
<path d="M4990 6773 c-197 -26 -1109 -191 -1235 -224 -189 -49 -324 -128 -456
-267 -132 -139 -206 -290 -245 -497 -14 -77 -17 -178 -20 -682 -3 -609 -5
-636 -45 -715 -41 -80 -85 -103 -549 -290 -400 -161 -458 -180 -557 -180 -74
-1 -90 3 -149 32 -57 28 -77 46 -155 140 -49 59 -104 119 -122 133 -111 84
-260 75 -357 -22 -49 -49 -200 -272 -245 -361 -32 -63 -43 -158 -26 -230 5
-24 8 -46 6 -48 -2 -3 -59 17 -127 43 -228 87 -224 86 -270 76 -124 -28 -144
-179 -33 -252 22 -14 113 -60 202 -101 l162 -75 -37 -9 c-72 -18 -104 -112
-62 -181 34 -56 82 -72 268 -89 218 -20 292 -12 507 60 207 69 461 170 617
245 104 51 145 64 268 90 147 31 266 57 580 131 96 23 222 52 280 65 235 55
307 85 388 165 48 47 99 133 123 205 10 31 15 215 19 832 5 780 5 792 26 820
30 41 85 66 130 57 46 -8 102 -57 125 -109 18 -38 19 -99 19 -1180 0 -1214 1
-1177 -49 -1289 -11 -27 -20 -50 -19 -51 2 -1 73 -21 158 -45 85 -23 286 -83
445 -133 160 -49 349 -107 420 -129 72 -22 139 -40 150 -40 19 0 209 55 595
172 74 23 234 70 354 106 121 35 221 65 222 67 2 2 -10 36 -27 75 -18 43 -34
105 -40 154 -6 52 -8 494 -7 1168 l3 1085 24 48 c42 86 133 126 201 89 75 -41
70 11 73 -858 l2 -779 26 -72 c32 -87 105 -193 162 -235 84 -61 106 -68 692
-203 182 -42 404 -92 494 -110 152 -31 174 -39 305 -104 229 -114 659 -269
819 -297 73 -13 111 -13 225 -4 166 13 232 24 272 45 71 37 93 139 42 196 -15
17 -42 34 -62 38 -34 7 -34 7 55 46 197 87 309 149 332 184 40 59 22 160 -34
189 -54 29 -87 25 -219 -28 -133 -54 -223 -84 -230 -78 -2 3 1 20 6 39 16 56
12 154 -9 210 -27 69 -204 333 -263 390 -101 99 -248 106 -359 17 -23 -18 -70
-70 -105 -115 -114 -146 -185 -187 -316 -186 -84 1 -206 43 -633 217 -383 156
-386 158 -434 212 -77 88 -74 63 -82 764 -6 594 -7 630 -28 725 -66 298 -255
536 -525 661 -117 53 -281 87 -1176 245 -170 30 -396 45 -490 32z m-3585
-2877 c41 -62 78 -129 83 -151 17 -81 -20 -160 -93 -198 -51 -26 -146 -28
-193 -3 -76 39 -120 120 -107 197 6 37 118 213 173 271 24 26 27 27 44 11 10
-9 52 -66 93 -127z m7612 59 c71 -95 122 -183 129 -223 16 -83 -44 -172 -134
-198 -143 -42 -278 63 -258 200 10 67 164 300 195 294 8 -2 39 -35 68 -73z"/>
<path d="M1995 6588 c-64 -35 -91 -93 -75 -161 12 -57 39 -79 148 -124 129
-55 135 -56 174 -40 53 23 80 60 86 115 7 81 -11 103 -140 167 -112 55 -155
65 -193 43z"/>
<path d="M8080 6555 c-120 -57 -145 -76 -160 -120 -23 -71 16 -152 84 -175 38
-12 62 -5 198 58 66 30 92 49 108 74 52 86 -9 208 -105 208 -16 0 -73 -20
-125 -45z"/>
<path d="M586 6110 c-118 -36 -143 -211 -38 -273 18 -11 247 -61 579 -127 581
-116 578 -116 640 -75 14 9 34 37 45 62 34 76 6 156 -66 193 -27 13 -229 57
-577 125 -295 58 -540 105 -545 104 -5 0 -22 -5 -38 -9z"/>
<path d="M9061 6010 c-293 -60 -546 -114 -562 -121 -17 -7 -41 -31 -56 -56
-49 -84 -16 -185 72 -219 l45 -17 383 77 c774 156 761 153 797 211 25 41 26
109 2 155 -19 37 -90 81 -127 79 -11 -1 -260 -50 -554 -109z"/>
<path d="M543 5200 c-111 -50 -113 -217 -3 -272 32 -17 82 -18 590 -18 l556 0
44 23 c54 27 82 71 82 132 0 61 -28 105 -82 133 l-44 22 -551 0 c-521 0 -552
-1 -592 -20z"/>
<path d="M8520 5198 c-57 -30 -82 -65 -87 -125 -5 -61 20 -110 73 -140 l39
-23 555 0 556 0 44 23 c62 31 85 67 85 130 0 63 -28 108 -85 137 -38 19 -61
20 -587 20 l-549 0 -44 -22z"/>
<path d="M2418 3105 c-163 -27 -272 -79 -368 -175 -112 -111 -164 -240 -162
-405 1 -155 57 -282 173 -391 94 -88 182 -128 344 -159 48 -9 175 -42 283 -75
549 -164 953 -283 1098 -325 l162 -46 203 132 c434 282 946 591 1009 610 52
16 111 -3 149 -46 26 -30 31 -44 31 -85 0 -65 -27 -96 -138 -156 -107 -58
-532 -316 -782 -474 -102 -64 -273 -172 -380 -239 -107 -67 -214 -141 -237
-165 -60 -62 -77 -139 -49 -218 l13 -37 -726 -3 -726 -3 -33 -23 c-92 -66 -82
-214 18 -265 33 -16 184 -17 2832 -15 l2797 3 28 21 c52 39 75 83 70 137 -4
51 -26 88 -71 121 -27 21 -38 21 -756 24 l-729 2 15 35 c37 89 -1 210 -82 266
-25 17 -69 41 -99 54 l-54 24 -203 -64 c-112 -35 -333 -105 -493 -155 -212
-67 -309 -93 -362 -97 l-73 -6 -39 40 c-97 96 -41 220 110 242 35 5 159 40
274 76 452 143 612 192 1580 485 617 186 694 209 775 225 179 35 275 79 372
172 145 140 198 331 148 527 -27 109 -63 169 -150 257 -119 120 -246 171 -465
184 -118 7 -171 -4 -495 -108 -113 -36 -321 -102 -462 -146 -142 -45 -372
-117 -510 -160 -280 -88 -688 -214 -873 -269 -103 -30 -136 -36 -235 -37
l-115 -3 -295 88 c-265 79 -436 131 -1070 325 -102 31 -344 106 -538 167 -195
60 -388 118 -430 129 -85 22 -172 23 -284 4z"/>
</g>
</svg>
