<svg width="213" height="123" viewBox="0 0 213 123" fill="none" xmlns="http://www.w3.org/2000/svg">
<rect width="213" height="123" fill="#FF2712"/>
<path d="M50 50L63.9904 101.196H82.3155L89.0516 73.8642L97.0732 102H113.983L129 50H113.864L105.085 80.2663L96.9436 50H82.8237L74.1743 79.7337L65.6446 50H50Z" fill="white"/>
<path d="M46 50H29V102H46V50Z" fill="white"/>
<path d="M163.519 50H147.315L126 100H142.38L145.37 91.372H164.575L167.917 100H185L163.519 50ZM149.623 78.0333L155.252 63.9715L160.891 78.0333H149.623Z" fill="white"/>
<path d="M29.75 35.25V21.75H92.25V35.25H29.75Z" fill="#1D5AE6" stroke="#C6BFC3" stroke-width="1.5"/>
</svg>
