<?xml version="1.0" standalone="no"?>
<!DOCTYPE svg PUBLIC "-//W3C//DTD SVG 20010904//EN"
 "http://www.w3.org/TR/2001/REC-SVG-20010904/DTD/svg10.dtd">
<svg version="1.0" xmlns="http://www.w3.org/2000/svg"
 width="820.000000pt" height="456.000000pt" viewBox="0 0 820.000000 456.000000"
 preserveAspectRatio="xMidYMid meet">

<g transform="translate(0.000000,456.000000) scale(0.100000,-0.100000)"
fill="#000000" stroke="none">
<path d="M3950 4139 c-120 -31 -195 -74 -286 -164 -127 -126 -184 -263 -184
-440 0 -198 82 -369 237 -493 108 -87 241 -132 388 -132 177 0 314 57 440 184
91 92 134 167 165 290 115 454 -306 873 -760 755z m51 -765 c62 -66 133 -70
199 -10 51 46 98 49 129 10 12 -15 21 -36 21 -48 0 -85 -159 -177 -281 -163
-99 12 -209 96 -209 159 0 73 90 106 141 52z"/>
<path d="M3630 2725 c-98 -22 -198 -61 -284 -111 -90 -53 -219 -172 -282 -261
-100 -139 -165 -332 -168 -494 -1 -77 2 -89 26 -126 52 -78 -35 -73 1186 -73
l1089 0 33 22 c66 46 75 68 73 186 -1 131 -26 232 -87 357 -116 242 -305 399
-586 488 -61 20 -92 21 -500 23 -346 2 -448 0 -500 -11z"/>
<path d="M2677 1388 c-13 -13 -46 -70 -73 -128 -26 -58 -54 -112 -61 -121 -9
-11 -54 -22 -139 -34 -148 -21 -174 -36 -174 -95 0 -34 9 -47 97 -140 110
-116 106 -99 73 -273 -23 -128 -16 -164 39 -187 35 -14 34 -14 237 96 l50 28
114 -62 c128 -70 166 -77 205 -37 31 30 31 53 5 205 -11 63 -20 119 -20 124 0
4 45 54 100 111 100 103 111 124 94 170 -11 27 -55 42 -173 60 -62 9 -119 19
-126 21 -7 3 -40 63 -73 134 -35 74 -69 133 -81 139 -32 17 -68 13 -94 -11z"/>
<path d="M4052 1393 c-11 -10 -44 -70 -73 -133 -29 -63 -57 -120 -63 -126 -6
-7 -64 -19 -129 -29 -66 -9 -129 -21 -142 -27 -24 -11 -45 -47 -45 -78 0 -11
44 -68 100 -127 55 -60 100 -115 100 -124 0 -8 -9 -64 -20 -124 -25 -136 -25
-156 0 -188 37 -47 60 -44 188 25 64 35 122 64 129 66 7 2 61 -24 121 -57 139
-78 193 -81 221 -13 10 23 8 51 -8 149 -12 66 -21 131 -21 144 0 15 30 53 96
120 93 95 95 98 92 140 -4 61 -29 74 -178 96 l-125 18 -61 124 c-33 68 -71
132 -83 143 -29 23 -73 23 -99 1z"/>
<path d="M5427 1388 c-13 -13 -46 -70 -73 -128 -26 -58 -54 -112 -61 -121 -9
-11 -54 -22 -139 -34 -147 -21 -174 -36 -174 -94 0 -33 10 -48 99 -143 l98
-105 -23 -137 c-25 -147 -22 -172 18 -200 37 -26 66 -19 179 44 59 33 115 60
125 60 9 0 66 -27 125 -60 59 -33 117 -60 129 -60 36 0 79 29 86 57 6 23 -11
162 -33 275 -5 24 7 40 96 132 101 104 112 125 95 171 -11 27 -55 42 -173 60
-62 9 -119 19 -126 21 -7 3 -40 63 -73 134 -35 74 -69 133 -81 139 -32 17 -68
13 -94 -11z"/>
</g>
</svg>
