<?xml version="1.0" standalone="no"?>
<!DOCTYPE svg PUBLIC "-//W3C//DTD SVG 20010904//EN"
 "http://www.w3.org/TR/2001/REC-SVG-20010904/DTD/svg10.dtd">
<svg version="1.0" xmlns="http://www.w3.org/2000/svg"
 width="980.000000pt" height="984.000000pt" viewBox="0 0 980.000000 984.000000"
 preserveAspectRatio="xMidYMid meet">

<g transform="translate(0.000000,984.000000) scale(0.100000,-0.100000)"
fill="#000000" stroke="none">
<path d="M3260 9824 c-19 -2 -98 -8 -175 -14 -761 -58 -1514 -255 -2059 -538
-279 -146 -465 -278 -646 -461 -186 -187 -302 -377 -352 -577 -31 -126 -32
-334 0 -450 95 -351 367 -665 809 -932 934 -564 2452 -798 3868 -596 992 141
1826 489 2282 952 429 435 489 933 171 1400 -29 42 -111 136 -183 208 -198
199 -384 328 -695 483 -532 264 -1151 427 -1930 507 -111 11 -283 17 -605 19
-247 2 -466 1 -485 -1z m802 -471 l3 -168 195 -7 c221 -7 430 -28 635 -63 214
-37 265 -48 265 -56 0 -6 -196 -394 -205 -407 -1 -1 -94 13 -206 32 -468 79
-840 102 -1234 76 -275 -19 -431 -66 -468 -142 -17 -34 -17 -39 -2 -75 21 -49
48 -78 110 -113 146 -82 353 -126 929 -195 476 -57 800 -146 1036 -282 84 -49
199 -163 230 -228 48 -103 37 -252 -27 -380 -147 -289 -555 -464 -1173 -503
l-115 -7 -3 -167 -2 -168 -375 0 -375 0 0 165 c0 163 0 165 -22 169 -13 3
-108 12 -213 21 -104 9 -280 27 -390 41 -194 24 -667 94 -673 100 -4 2 204
410 219 430 6 7 47 3 136 -13 750 -138 1395 -178 1718 -106 192 42 303 151
249 244 -51 87 -259 156 -904 299 -795 176 -1131 296 -1283 459 -62 66 -79
104 -85 186 -17 269 205 472 640 585 162 42 296 62 556 86 l72 6 0 174 0 174
380 0 380 0 2 -167z"/>
<path d="M71 6987 c-202 -498 38 -1025 654 -1437 575 -383 1406 -636 2358
-715 219 -18 713 -31 817 -21 l75 8 58 84 c188 272 454 548 720 745 43 33 75
59 71 59 -5 0 -74 -9 -154 -20 -828 -113 -1689 -84 -2464 85 -1017 222 -1788
666 -2075 1195 l-38 71 -22 -54z"/>
<path d="M7245 6999 c-38 -86 -140 -224 -244 -332 -139 -144 -257 -237 -487
-384 -15 -10 1 -11 81 -6 143 8 462 -18 633 -53 30 -6 33 -4 51 37 11 24 32
85 47 134 25 81 27 106 28 240 0 161 -14 237 -66 354 l-24 54 -19 -44z"/>
<path d="M6583 6079 c-387 -29 -737 -126 -1098 -304 -818 -402 -1412 -1168
-1599 -2061 -46 -221 -59 -361 -59 -614 0 -490 97 -908 309 -1331 590 -1179
1863 -1831 3164 -1619 488 80 948 283 1360 600 122 94 406 378 500 500 266
345 450 721 549 1121 283 1139 -117 2329 -1030 3062 -232 186 -582 382 -859
481 -385 137 -829 197 -1237 165z m537 -784 l0 -275 74 0 c93 0 278 -24 394
-50 173 -40 415 -128 420 -153 3 -13 -155 -657 -163 -665 -2 -2 -77 21 -167
52 -168 57 -307 94 -438 118 -100 18 -532 18 -615 0 -116 -25 -203 -62 -254
-108 -66 -59 -85 -110 -79 -206 14 -210 190 -360 547 -464 47 -14 178 -47 291
-74 225 -53 290 -75 425 -143 326 -163 528 -388 607 -672 19 -70 22 -105 22
-275 0 -226 -17 -329 -85 -510 -150 -400 -470 -634 -936 -685 l-63 -7 -2 -276
-3 -277 -305 0 -305 0 -3 277 c-2 265 -3 278 -21 278 -45 0 -321 56 -496 100
-195 50 -514 146 -528 159 -7 7 164 706 175 716 2 2 102 -30 223 -70 246 -83
437 -134 630 -166 173 -30 447 -33 545 -6 201 55 300 162 317 343 5 52 2 70
-20 116 -66 145 -213 239 -737 473 -639 285 -904 479 -1034 756 -65 138 -83
331 -51 542 68 453 401 759 915 842 52 8 98 15 103 15 4 0 7 128 7 285 l0 285
305 0 305 0 0 -275z"/>
<path d="M75 5796 c-35 -84 -66 -217 -72 -307 -43 -700 731 -1351 1992 -1674
438 -112 875 -174 1406 -199 l107 -5 16 87 c41 207 117 459 191 633 19 44 35
83 35 85 0 2 -57 4 -127 4 -392 0 -918 53 -1307 131 -478 96 -866 223 -1231
404 -290 144 -483 276 -673 460 -125 121 -211 228 -273 341 -23 41 -43 74 -45
74 -3 0 -11 -15 -19 -34z"/>
<path d="M81 4613 c-5 -10 -20 -54 -34 -98 -182 -578 194 -1151 1025 -1565
569 -283 1314 -468 2088 -519 85 -6 206 -13 269 -16 l114 -6 -7 33 c-44 213
-66 421 -66 623 l0 154 -52 5 c-29 3 -109 8 -178 11 -862 41 -1770 282 -2356
626 -349 204 -635 473 -755 712 -16 31 -31 57 -34 57 -2 0 -8 -8 -14 -17z"/>
<path d="M79 3404 c-33 -85 -51 -147 -64 -223 -111 -632 467 -1254 1515 -1630
437 -156 924 -259 1500 -317 177 -18 966 -31 1017 -18 l33 9 -46 65 c-115 164
-244 404 -329 613 l-48 117 -136 0 c-348 1 -816 51 -1211 130 -1070 215 -1848
647 -2173 1204 l-46 79 -12 -29z"/>
<path d="M79 2204 c-33 -85 -51 -147 -64 -223 -155 -883 1031 -1706 2770
-1920 329 -41 430 -46 905 -46 373 0 500 4 640 18 325 33 609 78 873 137 72
17 134 30 137 30 3 0 -62 35 -145 78 -268 139 -477 285 -707 495 l-87 79 -123
-12 c-180 -18 -835 -25 -1046 -11 -1247 82 -2295 451 -2847 1005 -108 108
-168 185 -241 308 l-53 91 -12 -29z"/>
</g>
</svg>
