<?xml version="1.0" standalone="no"?>
<!DOCTYPE svg PUBLIC "-//W3C//DTD SVG 20010904//EN"
 "http://www.w3.org/TR/2001/REC-SVG-20010904/DTD/svg10.dtd">
<svg version="1.0" xmlns="http://www.w3.org/2000/svg"
 width="900.000000pt" height="900.000000pt" viewBox="0 0 900.000000 900.000000"
 preserveAspectRatio="xMidYMid meet">

<g transform="translate(0.000000,900.000000) scale(0.100000,-0.100000)"
fill="#000000" stroke="none">
<path d="M4855 8524 c-68 -11 -159 -48 -266 -111 -207 -120 -328 -163 -508
-183 -131 -14 -254 -1 -421 45 -69 18 -154 39 -189 45 -152 27 -307 -26 -478
-162 -83 -65 -134 -144 -162 -249 -70 -261 -103 -341 -201 -489 -131 -199
-280 -345 -427 -419 -122 -62 -202 -111 -237 -147 -46 -48 -90 -133 -122 -239
-24 -78 -27 -108 -28 -220 -1 -156 9 -186 114 -353 116 -185 149 -268 171
-421 22 -156 6 -267 -82 -581 -37 -134 -21 -257 56 -417 57 -119 109 -195 179
-261 74 -70 155 -106 296 -132 243 -44 340 -92 504 -249 87 -84 149 -178 211
-321 67 -155 121 -213 259 -280 178 -87 432 -148 571 -137 93 7 149 34 269
131 115 93 179 128 286 159 221 64 360 59 607 -23 119 -40 165 -50 216 -50 89
0 202 37 307 100 237 142 313 244 369 495 34 148 53 209 89 280 96 191 219
308 437 418 112 56 205 124 246 179 45 61 103 189 130 288 18 67 23 111 23
205 0 146 -9 172 -125 351 -127 197 -163 305 -176 522 -6 118 5 231 42 422 13
69 26 154 30 190 16 167 -67 383 -192 500 -82 77 -158 114 -350 169 -78 23
-178 56 -222 75 -186 79 -344 217 -446 392 -168 286 -211 337 -335 397 -123
59 -336 97 -445 81z m-50 -724 c139 -28 349 -96 468 -153 392 -186 724 -517
912 -909 245 -510 257 -1087 34 -1607 -180 -420 -505 -762 -917 -966 -462
-229 -975 -265 -1465 -104 -587 192 -1048 656 -1237 1244 -66 208 -91 368 -91
599 0 961 696 1762 1661 1912 137 21 497 12 635 -16z"/>
<path d="M4260 7574 c-522 -65 -974 -351 -1247 -789 -161 -257 -239 -519 -250
-830 -6 -191 9 -328 53 -494 137 -509 510 -928 999 -1124 375 -150 777 -163
1158 -37 128 42 334 147 447 227 121 87 306 272 393 393 37 52 96 154 132 225
173 347 222 716 146 1092 -105 514 -446 949 -923 1178 -235 113 -423 156 -693
160 -99 2 -196 1 -215 -1z m1238 -957 l162 -162 -725 -725 -725 -725 -395 395
-395 395 165 165 165 165 230 -230 230 -230 558 558 c306 306 559 557 562 557
3 0 78 -73 168 -163z"/>
<path d="M6550 3273 c-484 -353 -914 -537 -1482 -633 -93 -16 -172 -30 -174
-33 -2 -2 164 -390 369 -863 205 -472 409 -941 452 -1041 44 -101 82 -179 86
-175 3 4 79 255 169 557 232 781 236 794 243 801 5 6 522 -234 1126 -522 85
-41 156 -73 158 -71 2 2 -23 64 -55 138 -33 74 -229 530 -437 1014 -208 484
-378 881 -379 882 0 0 -35 -24 -76 -54z"/>
<path d="M2422 3118 c-71 -161 -220 -492 -540 -1203 -154 -341 -279 -621 -277
-623 1 -1 145 66 321 149 736 348 953 449 963 449 6 0 11 -6 11 -12 0 -7 18
-71 39 -143 22 -71 94 -314 161 -540 174 -585 199 -667 203 -671 4 -5 0 -15
277 621 482 1105 573 1313 596 1364 13 30 23 55 22 56 -2 1 -59 10 -128 19
-624 89 -1043 255 -1535 610 -27 20 -53 36 -56 36 -4 0 -29 -51 -57 -112z"/>
</g>
</svg>
