<?xml version="1.0" standalone="no"?>
<!DOCTYPE svg PUBLIC "-//W3C//DTD SVG 20010904//EN"
 "http://www.w3.org/TR/2001/REC-SVG-20010904/DTD/svg10.dtd">
<svg version="1.0" xmlns="http://www.w3.org/2000/svg"
 width="1331.000000pt" height="1511.000000pt" viewBox="0 0 1331.000000 1511.000000"
 preserveAspectRatio="xMidYMid meet">

<g transform="translate(0.000000,1511.000000) scale(0.100000,-0.100000)"
fill="#000000" stroke="none">
<path d="M3860 15095 c-274 -33 -600 -131 -955 -285 -444 -194 -1041 -540
-1420 -824 -330 -247 -625 -540 -767 -761 -164 -253 -228 -498 -187 -711 11
-53 471 -1259 488 -1277 4 -4 66 62 138 145 540 632 1236 1201 1963 1606 710
396 1515 683 2287 813 73 12 138 26 144 30 14 8 -778 1000 -855 1071 -185 169
-478 237 -836 193z"/>
<path d="M9045 15095 c-165 -26 -328 -99 -431 -193 -77 -71 -869 -1063 -855
-1071 6 -4 71 -18 144 -30 772 -130 1577 -417 2287 -813 727 -405 1423 -974
1963 -1606 72 -83 134 -149 138 -145 17 18 477 1224 488 1277 41 213 -23 458
-187 711 -142 221 -437 514 -767 761 -379 284 -976 630 -1420 824 -548 238
-1024 338 -1360 285z"/>
<path d="M6420 13299 c-1668 -52 -3270 -749 -4465 -1944 -1137 -1137 -1808
-2597 -1936 -4210 -17 -206 -17 -774 0 -980 115 -1451 653 -2747 1600 -3855
240 -280 632 -653 941 -896 859 -673 1885 -1130 2950 -1313 416 -71 703 -95
1145 -95 182 0 402 6 490 13 1464 115 2789 672 3897 1638 169 147 499 479 644
648 950 1110 1489 2406 1605 3860 17 204 17 784 0 980 -94 1132 -430 2143
-1020 3070 -934 1467 -2422 2525 -4101 2915 -575 133 -1137 188 -1750 169z
m685 -919 c1794 -146 3391 -1100 4377 -2615 1009 -1551 1199 -3524 506 -5250
-126 -314 -325 -696 -513 -985 -439 -675 -1020 -1256 -1695 -1695 -374 -243
-840 -472 -1255 -615 -1200 -413 -2540 -413 -3737 -1 -1206 416 -2254 1236
-2953 2310 -903 1390 -1160 3098 -706 4697 454 1599 1616 2955 3126 3646 695
318 1383 482 2190 522 110 6 527 -4 660 -14z"/>
<path d="M6543 11475 c-121 -33 -229 -117 -286 -223 -59 -110 -57 -8 -57
-2164 l0 -1978 -2007 -2 -2008 -3 -64 -24 c-183 -68 -301 -236 -301 -425 0
-169 77 -304 220 -391 114 -69 -53 -65 2416 -65 1477 0 2249 3 2285 10 181 35
330 188 359 370 14 90 14 4440 0 4530 -41 259 -306 432 -557 365z"/>
</g>
</svg>
